# AST/ASF file generated using VICON BodyLanguage
# -----------------------------------------------
:version 1.10
:name VICON
:units
  mass 1.0
  length 0.45
  angle deg
:documentation
   .ast/.asf automatically generated from VICON data using
   VICON BodyBuilder and BodyLanguage model FoxedUp or BRILLIANT.MOD
:root
   order TX TY TZ RX RY RZ
   axis XYZ
   position 0 0 0  
   orientation 0 0 0 
:bonedata
  begin
     id 1 
     name lhipjoint
     direction 0.625129 -0.738222 0.253461 
     length 2.5165 
     axis 0 0 0  XYZ
  end
  begin
     id 2 
     name lfemur
     direction 0.34202 -0.939693 0  
     length 7.54288  
     axis 0 0 20  XYZ
    dof rx ry rz
    limits (-160.0 20.0)
           (-70.0 70.0)
           (-60.0 70.0)
  end
  begin
     id 3 
     name ltibia
     direction 0.34202 -0.939693 0   
     length 7.71864   
     axis 0 0 20   XYZ
    dof rx
    limits (-10.0 170.0)
  end
  begin
     id 4 
     name lfoot
     direction 0.0772037 -0.212115 0.97419   
     length 2.18429   
     axis -90 7.62852e-016 20   XYZ
    dof rx rz
    limits (-45.0 90.0)
           (-70.0 20.0)
  end
  begin
     id 5 
     name ltoes
     direction 1.53513e-011 -4.21834e-011 1   
     length 1.09718   
     axis -90 7.62852e-016 20   XYZ
    dof rx
    limits (-90.0 20.0)
  end
  begin
     id 6 
     name rhipjoint
     direction -0.621946 -0.740623 0.254285   
     length 2.50835  
     axis 0 0 0  XYZ 
  end
  begin
     id 7 
     name rfemur
     direction -0.34202 -0.939693 0   
     length 7.43366   
     axis 0 0 -20   XYZ
    dof rx ry rz
    limits (-160.0 20.0)
           (-70.0 70.0)
           (-70.0 60.0)
  end
  begin
     id 8 
     name rtibia
     direction -0.34202 -0.939693 0   
     length 7.77122   
     axis 0 0 -20   XYZ
    dof rx
    limits (-10.0 170.0)
 end
 begin
     id 9 
     name rfoot
     direction -0.082694 -0.2272 0.970331   
     length 2.2293  
     axis -90 -7.62852e-016 -20   XYZ
    dof rx rz
    limits (-45.0 90.0)
           (-20.0 70.0)
  end
  begin
     id 10 
     name rtoes
     direction -1.53565e-011 -4.21695e-011 1   
     length 1.1178   
     axis -90 -7.62852e-016 -20   XYZ
    dof rx
    limits (-90.0 20.0)
  end
  begin
     id 11 
     name lowerback
     direction -0.000695208 0.988391 -0.151929   
     length 1.95077   
     axis 0 0 0   XYZ
    dof rx ry rz
    limits (-20.0 45.0)
           (-30.0 30.0)
           (-30.0 30.0)
  end
  begin
     id 12 
     name upperback
     direction -0.00268925 0.999885 -0.0149203   
     length 1.96246   
     axis 0 0 0   XYZ
    dof rx ry rz
    limits (-20.0 45.0)
           (-30.0 30.0)
           (-30.0 30.0)
  end
  begin
     id 13 
     name thorax
     direction -0.000848408 0.998481 0.0550912   
     length 2.00867   
     axis 0 0 0   XYZ
    dof rx ry rz
    limits (-20.0 45.0)
           (-30.0 30.0)
           (-30.0 30.0)
  end
  begin
     id 14 
     name lowerneck
     direction -0.00577709 0.998999 0.0443608   
     length 1.75762   
     axis 0 0 0   XYZ
    dof rx ry rz
    limits (-20.0 45.0)
           (-30.0 30.0)
           (-30.0 30.0)
  end
  begin
     id 15 
     name upperneck
     direction 0.0320945 0.999136 0.0264105   
     length 1.72601   
     axis 0 0 0   XYZ
    dof rx ry rz
    limits (-20.0 45.0)
           (-30.0 30.0)
           (-30.0 30.0)
  end
  begin
     id 16
     name head
     direction 0.0120552 0.999916 0.00480151  
     length 1.79973  
     axis 0 0 0   XYZ
    dof rx ry rz
    limits (-20.0 45.0)
           (-30.0 30.0)
           (-30.0 30.0)
  end
  begin
     id 17 
     name lclavicle
     direction 0.909 0.371533 -0.188897  
     length 3.47956  
     axis 0 0 0   XYZ
    dof ry rz
    limits (-20.0 10.0)
           (0.0 20.0)
  end
  begin
     id 18 
     name lhumerus
     direction 1 -4.48963e-011 -6.48352e-028   
     length 5.52302   
     axis 180 -30 -90   XYZ
    dof rx ry rz
    limits (-60.0 90.0)
           (-90.0 90.0)
           (-90.0 90.0)
  end
  begin
     id 19
     name lradius
     direction 1 -4.48968e-011 -4.78536e-027   
     length 3.58675   
     axis 180 -30 -90   XYZ
    dof rx
    limits (-10.0 170.0)
  end
  begin
     id 20
     name lwrist
     direction 1 -4.48942e-011 -9.9435e-027   
     length 1.79337   
     axis 8.54312e-015 90 90   XYZ
    dof ry
    limits (-180.0 0.0)
 end
  begin
     id 21 
     name lhand
     direction 1 -4.4904e-011 -1.9887e-026   
     length 0.536412   
     axis 1.26896e-014 90 90   XYZ
    dof rx rz
    limits (-90.0 90.0)
           (-45.0 45.0)
  end
  begin
     id 22 
     name lfingers
     direction 1 -4.48893e-011 -3.9774e-026   
     length 0.432469   
     axis 2.53792e-014 90 90   XYZ
    dof rx
    limits (0.0 90.0)
  end
  begin
     id 23
     name lthumb
     direction 0.707107 -6.34934e-011 0.707107   
     length 0.620942   
     axis -90 45 2.85299e-015   XYZ
    dof rx rz
    limits (-45.0 45.0)
           (-45.0 45.0)
  end
  begin
     id 24 
     name rclavicle
     direction -0.89595 0.416672 -0.153813   
     length 3.44099  
     axis 0 0 0   XYZ 
    dof ry rz
    limits (-10.0 20.0)
           (-20.0 0.0)
  end
  begin
     id 25 
     name rhumerus
     direction -1 -4.48952e-011 5.57804e-028  
     length 5.8478   
     axis 180 30 90   XYZ
    dof rx ry rz
    limits (-90.0 60.0)
           (-90.0 90.0)
           (-90.0 90.0)
  end
  begin
     id 26 
     name rradius
     direction -1 -4.48967e-011 -7.93646e-027   
     length 3.62717   
     axis 180 30 90   XYZ
    dof rx
    limits (-10.0 170.0)
  end
  begin
     id 27 
     name rwrist
     direction -1 -4.49008e-011 -9.9435e-027   
     length 1.81359   
     axis 8.54312e-015 -90 -90   XYZ
    dof ry
    limits (-180.0 0.0)
  end
  begin
     id 28
     name rhand
     direction -1 -4.48812e-011 -1.9887e-026   
     length 0.650516   
     axis 1.26896e-014 -90 -90   XYZ
    dof rx rz
    limits (-90.0 90.0)
           (-45.0 45.0)
  end
  begin
     id 29
     name rfingers
     direction -1 -4.49228e-011 -3.9774e-026   
     length 0.524463   
     axis 2.53792e-014 -90 -90   XYZ
    dof rx
    limits (0.0 90.0)
  end
  begin
     id 30
     name rthumb
     direction -0.707107 -6.34912e-011 0.707107   
     length 0.753027   
     axis -90 -45 -2.85299e-015   XYZ
    dof rx rz
    limits (-45.0 45.0)
           (-45.0 45.0)
  end
:hierarchy
  begin
    root lhipjoint rhipjoint lowerback
    lhipjoint lfemur
    lfemur ltibia
    ltibia lfoot
    lfoot ltoes
    rhipjoint rfemur
    rfemur rtibia
    rtibia rfoot
    rfoot rtoes
    lowerback upperback
    upperback thorax
    thorax lowerneck lclavicle rclavicle
    lowerneck upperneck
    upperneck head
    lclavicle lhumerus
    lhumerus lradius
    lradius lwrist
    lwrist lhand lthumb
    lhand lfingers
    rclavicle rhumerus
    rhumerus rradius
    rradius rwrist
    rwrist rhand rthumb
    rhand rfingers
  end

#!OML:ASF F:\VICON\USERDATA\INSTALL\rory3\rory3.ASF
:FULLY-SPECIFIED
:DEGREES
300
root -10.3456 17.9009 23.9296 -0.800936 -3.03387 -1.61121
lowerback 9.22115 -1.84965 0.772405
upperback 2.31314 -2.37102 0.425974
thorax -2.7788 -1.18311 0.277699
lowerneck -2.05771 3.38269 1.63248
upperneck 14.6779 4.35763 0.624
head 4.76208 2.24855 0.128243
rclavicle 8.64713e-015 8.44835e-015
rhumerus -36.445 -11.7173 -78.3781
rradius 15.8971
rwrist 15.907
rhand -21.2402 15.9092
rfingers 7.12502
rthumb 5.14239 -14.0084
lclavicle 8.64713e-015 8.44835e-015
lhumerus -13.8525 0.0179079 86.4773
lradius 31.8131
lwrist 9.61943
lhand -37.2474 17.4297
lfingers 7.12502
lthumb -10.3133 47.1568
rfemur -16.7537 7.33592 22.1156
rtibia 27.4472
rfoot -3.25678 -6.98004
rtoes 2.88516
lfemur 2.89758 0.470305 -19.4459
ltibia 49.2784
lfoot 13.4685 -2.95046
ltoes -19.0952
301
root -10.374 17.9255 24.0855 -0.834957 -2.52622 -1.81021
lowerback 9.34336 -1.78901 0.949166
upperback 2.16924 -2.26825 0.495006
thorax -2.9992 -1.13299 0.245376
lowerneck -1.84874 3.21532 1.30125
upperneck 14.8567 4.09951 1.0566
head 4.76361 2.13028 0.300855
rclavicle -3.18801e-014 3.67752e-015
rhumerus -36.7075 -11.8473 -78.0743
rradius 16.3079
rwrist 15.8468
rhand -20.9796 15.6929
rfingers 7.12502
rthumb 5.39401 -14.2185
lclavicle -3.18801e-014 3.67752e-015
lhumerus -14.2264 0.7742 86.5255
lradius 30.4132
lwrist 8.67752
lhand -37.0202 17.3288
lfingers 7.12502
lthumb -10.0942 47.0667
rfemur -15.8049 7.38651 22.4894
rtibia 26.9761
rfoot -3.44064 -7.74982
rtoes 2.36757
lfemur 1.36664 0.679015 -19.0018
ltibia 51.4459
lfoot 13.4201 -1.71758
ltoes -16.9868
302
root -10.3971 17.9553 24.2397 -0.963344 -1.98557 -2.00543
lowerback 9.55267 -1.77641 1.15819
upperback 2.10039 -2.22378 0.576121
thorax -3.19085 -1.11228 0.215297
lowerneck -1.73069 3.11829 0.961294
upperneck 14.8866 3.96013 1.30798
head 4.73985 2.05886 0.425264
rclavicle -1.82509e-014 1.74931e-014
rhumerus -36.834 -11.845 -77.7406
rradius 16.6492
rwrist 16.1926
rhand -21.3201 16.6412
rfingers 7.12502
rthumb 5.06525 -13.2783
lclavicle -1.82509e-014 1.74931e-014
lhumerus -14.4986 1.62548 86.5502
lradius 28.9233
lwrist 7.95317
lhand -36.8877 17.2736
lfingers 7.12502
lthumb -9.9663 47.0176
rfemur -14.6852 7.38841 22.8389
rtibia 26.3143
rfoot -3.51316 -8.44698
rtoes 2.22955
lfemur -0.108232 0.907737 -18.588
ltibia 53.5075
lfoot 12.8607 -0.567814
ltoes -16.0364
303
root -10.4161 17.9761 24.3965 -1.147 -1.39198 -2.26375
lowerback 9.66972 -1.79094 1.50323
upperback 2.17503 -2.20417 0.650506
thorax -3.18794 -1.10454 0.0987671
lowerneck -1.81056 3.06945 0.899526
upperneck 14.8219 3.90994 1.23229
head 4.73364 2.02744 0.410569
rclavicle -3.24392e-014 4.37326e-015
rhumerus -36.6227 -11.8961 -77.4509
rradius 16.8484
rwrist 16.346
rhand -21.5939 16.9249
rfingers 7.12502
rthumb 4.80088 -13.0008
lclavicle -3.24392e-014 4.37326e-015
lhumerus -14.4314 2.43284 86.5241
lradius 27.4838
lwrist 7.81913
lhand -36.83 19.3093
lfingers 7.12502
lthumb -9.91062 49.056
rfemur -13.3385 7.19313 23.2543
rtibia 25.5998
rfoot -3.88642 -8.94541
rtoes 2.42731
lfemur -1.49647 1.03042 -18.1564
ltibia 55.3561
lfoot 12.5563 0.821967
ltoes -14.4309
304
root -10.4403 17.9937 24.5568 -1.24392 -0.764674 -2.53204
lowerback 9.68032 -1.77687 1.80856
upperback 2.22605 -2.15206 0.733101
thorax -3.14814 -1.08018 0.00592416
lowerneck -2.08426 2.96182 1.02385
upperneck 14.9437 3.79168 0.956789
head 4.82541 1.96173 0.30633
rclavicle 3.61167e-014 -1.87852e-014
rhumerus -36.4469 -12.1049 -77.2025
rradius 17.1699
rwrist 16.5996
rhand -21.4997 15.3354
rfingers 7.12502
rthumb 4.89188 -14.5882
lclavicle 3.61167e-014 -1.87852e-014
lhumerus -14.4898 3.34247 86.4749
lradius 26.3605
lwrist 7.81105
lhand -35.6302 22.6222
lfingers 7.12502
lthumb -8.75294 52.4207
rfemur -12.0818 7.05691 23.7144
rtibia 24.8413
rfoot -4.19185 -9.57362
rtoes 1.97309
lfemur -2.8972 1.14886 -17.6992
ltibia 57.0735
lfoot 11.9828 2.33452
ltoes -13.1324
305
root -10.4583 18.0426 24.7183 -1.37047 -0.193998 -2.86299
lowerback 9.86276 -1.74634 2.21083
upperback 2.18781 -2.06146 0.816977
thorax -3.2982 -1.03869 -0.137422
lowerneck -2.49024 2.84454 1.17047
upperneck 15.411 3.65982 0.656854
head 5.04663 1.88917 0.195209
rclavicle 1.59463e-014 -1.67973e-014
rhumerus -36.4676 -12.3064 -76.9162
rradius 17.6428
rwrist 17.1843
rhand -21.5252 14.3555
rfingers 7.12502
rthumb 4.86725 -15.5686
lclavicle 1.59463e-014 -1.67973e-014
lhumerus -14.8761 4.21514 86.3992
lradius 25.1692
lwrist 7.23561
lhand -34.847 24.1749
lfingers 7.12502
lthumb -7.99707 54.0036
rfemur -11.2666 6.726 24.2176
rtibia 24.2759
rfoot -4.08369 -9.93049
rtoes 1.30824
lfemur -4.02575 1.35253 -17.2156
ltibia 58.4072
lfoot 10.729 3.63899
ltoes -12.7385
306
root -10.4616 18.0329 24.8641 -1.46579 0.368733 -2.91309
lowerback 9.90275 -1.68882 2.57101
upperback 2.16281 -1.94986 0.713568
thorax -3.3594 -0.986858 -0.458992
lowerneck -2.78575 2.72095 1.31485
upperneck 15.8063 3.49944 0.513528
head 5.22403 1.81156 0.127488
rclavicle -1.21756e-015 -7.15625e-015
rhumerus -36.3836 -12.6386 -76.6678
rradius 17.9243
rwrist 17.8637
rhand -21.6204 14.5852
rfingers 7.12502
rthumb 4.77535 -15.341
lclavicle -1.21756e-015 -7.15625e-015
lhumerus -15.2642 4.89513 86.2129
lradius 23.5724
lwrist 6.3026
lhand -35.5018 23.149
lfingers 7.12502
lthumb -8.62905 52.9526
rfemur -10.0142 6.08343 24.3417
rtibia 23.7631
rfoot -4.64379 -9.94638
rtoes 1.10528
lfemur -5.31511 1.49937 -17.175
ltibia 59.798
lfoot 9.47543 4.7555
ltoes -11.4804
